<?xml version="1.0" encoding="UTF-8" standalone="no"?>
<svg
   id="svg1396"
   version="1.1"
   viewBox="0 0 246.75701 159.66631"
   height="603.4632"
   width="932.62494"
   sodipodi:docname="favicon.svg"
   inkscape:version="1.1 (c68e22c387, 2021-05-23)"
   xmlns:inkscape="http://www.inkscape.org/namespaces/inkscape"
   xmlns:sodipodi="http://sodipodi.sourceforge.net/DTD/sodipodi-0.dtd"
   xmlns:xlink="http://www.w3.org/1999/xlink"
   xmlns="http://www.w3.org/2000/svg"
   xmlns:svg="http://www.w3.org/2000/svg">
  <sodipodi:namedview
     id="namedview35"
     pagecolor="#ffffff"
     bordercolor="#666666"
     borderopacity="1.0"
     inkscape:pageshadow="2"
     inkscape:pageopacity="0.0"
     inkscape:pagecheckerboard="0"
     showgrid="false"
     inkscape:zoom="0.34348958"
     inkscape:cx="790.41698"
     inkscape:cy="639.02957"
     inkscape:window-width="1920"
     inkscape:window-height="1001"
     inkscape:window-x="-9"
     inkscape:window-y="-9"
     inkscape:window-maximized="1"
     inkscape:current-layer="layer1" />
  <defs
     id="defs1390">
    <linearGradient
       y2="138.25"
       x2="1058.3334"
       y1="402.83334"
       x1="555.625"
       gradientTransform="translate(-582.08332,-78.3165)"
       gradientUnits="userSpaceOnUse"
       id="linearGradient9054"
       xlink:href="#linearGradient964" />
    <linearGradient
       id="linearGradient964">
      <stop
         id="stop960"
         offset="0"
         style="stop-color:#f2f2f2;stop-opacity:1;" />
      <stop
         id="stop962"
         offset="1"
         style="stop-color:#f2f2f2;stop-opacity:1" />
    </linearGradient>
  </defs>
  <metadata
     id="metadata1393" />
  <g
     transform="translate(-130.62149,-74.2919)"
     id="layer1">
    <path
       id="path9056"
       d="m 362.86339,74.2919 a 14.515119,14.515119 0 0 0 -14.51512,14.5151 14.515119,14.515119 0 0 0 2.93223,8.7249 l -56.49329,79.0907 a 14.515119,14.515119 0 0 0 -4.49942,-0.7247 14.515119,14.515119 0 0 0 -6.707,1.6497 l -53.00683,-53.0071 a 14.515119,14.515119 0 0 0 1.65336,-6.7032 14.515119,14.515119 0 0 0 -14.51512,-14.5152 14.515119,14.515119 0 0 0 -14.51512,14.5152 14.515119,14.515119 0 0 0 3.00311,8.8239 L 150.53215,205.98 a 14.515119,14.515119 0 0 0 -5.39554,-1.052 14.515119,14.515119 0 0 0 -14.51512,14.5151 14.515119,14.515119 0 0 0 14.51512,14.5151 14.515119,14.515119 0 0 0 14.51511,-14.5151 14.515119,14.515119 0 0 0 -2.36352,-7.9298 l 56.03659,-79.845 a 14.515119,14.515119 0 0 0 4.38741,0.6841 14.515119,14.515119 0 0 0 6.70673,-1.6498 l 53.00712,53.0072 a 14.515119,14.515119 0 0 0 -1.65337,6.7032 14.515119,14.515119 0 0 0 14.51511,14.5151 14.515119,14.515119 0 0 0 14.51513,-14.5151 14.515119,14.515119 0 0 0 -2.93195,-8.7246 l 56.49359,-79.091 a 14.515119,14.515119 0 0 0 4.49883,0.7247 14.515119,14.515119 0 0 0 14.51512,-14.5151 14.515119,14.515119 0 0 0 -14.51512,-14.5151 z"
       style="color:#000000;clip-rule:nonzero;display:inline;overflow:visible;visibility:visible;isolation:auto;mix-blend-mode:normal;color-interpolation:sRGB;color-interpolation-filters:linearRGB;solid-color:#000000;solid-opacity:1;fill:#5599ff;fill-opacity:1;fill-rule:nonzero;stroke:none;stroke-width:0.290302;stroke-linecap:round;stroke-linejoin:round;stroke-miterlimit:4;stroke-dasharray:none;stroke-dashoffset:0;stroke-opacity:1;color-rendering:auto;image-rendering:auto;shape-rendering:auto;text-rendering:auto;enable-background:accumulate" />
  </g>
</svg>
